<mxfile host="app.diagrams.net" agent="Mozilla/5.0 (Windows NT 10.0; Win64; x64) AppleWebKit/537.36 (KHTML, like Gecko) Chrome/137.0.0.0 Safari/537.36 Edg/137.0.0.0" version="27.1.5">
  <diagram name="Page-1" id="xE461Xtwhfsks7-Qokx2">
    <mxGraphModel dx="1100" dy="587" grid="1" gridSize="10" guides="1" tooltips="1" connect="1" arrows="1" fold="1" page="1" pageScale="1" pageWidth="827" pageHeight="1169" math="0" shadow="0" adaptiveColors="auto">
      <root>
        <mxCell id="0" />
        <mxCell id="1" parent="0" />
        <mxCell id="FJN4-35jgTs4fs4E5eGO-9" style="edgeStyle=orthogonalEdgeStyle;rounded=0;orthogonalLoop=1;jettySize=auto;html=1;entryX=0;entryY=0.5;entryDx=0;entryDy=0;strokeColor=#A8201A;fontColor=#143642;fillColor=#FAE5C7;" edge="1" parent="1" source="FJN4-35jgTs4fs4E5eGO-1" target="FJN4-35jgTs4fs4E5eGO-3">
          <mxGeometry relative="1" as="geometry" />
        </mxCell>
        <mxCell id="FJN4-35jgTs4fs4E5eGO-1" value="用户" style="shape=umlActor;verticalLabelPosition=bottom;verticalAlign=top;html=1;outlineConnect=0;labelBackgroundColor=none;fillColor=#FAE5C7;strokeColor=#0F8B8D;fontColor=#143642;" vertex="1" parent="1">
          <mxGeometry x="60" y="250" width="30" height="60" as="geometry" />
        </mxCell>
        <mxCell id="FJN4-35jgTs4fs4E5eGO-2" value="管理员" style="shape=umlActor;verticalLabelPosition=bottom;verticalAlign=top;html=1;outlineConnect=0;labelBackgroundColor=none;fillColor=#FAE5C7;strokeColor=#0F8B8D;fontColor=#143642;" vertex="1" parent="1">
          <mxGeometry x="700" y="250" width="30" height="60" as="geometry" />
        </mxCell>
        <mxCell id="FJN4-35jgTs4fs4E5eGO-12" style="edgeStyle=orthogonalEdgeStyle;rounded=0;orthogonalLoop=1;jettySize=auto;html=1;exitX=0.5;exitY=1;exitDx=0;exitDy=0;entryX=0.5;entryY=0;entryDx=0;entryDy=0;strokeColor=#A8201A;fontColor=#143642;fillColor=#FAE5C7;startArrow=classic;startFill=1;" edge="1" parent="1" source="FJN4-35jgTs4fs4E5eGO-3" target="FJN4-35jgTs4fs4E5eGO-11">
          <mxGeometry relative="1" as="geometry" />
        </mxCell>
        <mxCell id="FJN4-35jgTs4fs4E5eGO-16" value="API接口&lt;div&gt;(HTTPS; RESTful)&lt;/div&gt;" style="edgeLabel;html=1;align=center;verticalAlign=middle;resizable=0;points=[];strokeColor=#0F8B8D;fontColor=#143642;fillColor=#FAE5C7;" vertex="1" connectable="0" parent="FJN4-35jgTs4fs4E5eGO-12">
          <mxGeometry x="0.2411" y="1" relative="1" as="geometry">
            <mxPoint x="38" y="-19" as="offset" />
          </mxGeometry>
        </mxCell>
        <mxCell id="FJN4-35jgTs4fs4E5eGO-3" value="小程序&lt;div&gt;WXML + WXSS + JS&lt;/div&gt;" style="shape=parallelogram;perimeter=parallelogramPerimeter;whiteSpace=wrap;html=1;fixedSize=1;strokeColor=#0F8B8D;fontColor=#143642;fillColor=#FAE5C7;" vertex="1" parent="1">
          <mxGeometry x="150" y="250" width="180" height="60" as="geometry" />
        </mxCell>
        <mxCell id="FJN4-35jgTs4fs4E5eGO-15" style="edgeStyle=orthogonalEdgeStyle;rounded=0;orthogonalLoop=1;jettySize=auto;html=1;strokeColor=#A8201A;fontColor=#143642;fillColor=#FAE5C7;startArrow=classic;startFill=1;" edge="1" parent="1" source="FJN4-35jgTs4fs4E5eGO-4" target="FJN4-35jgTs4fs4E5eGO-11">
          <mxGeometry relative="1" as="geometry" />
        </mxCell>
        <mxCell id="FJN4-35jgTs4fs4E5eGO-25" value="JSON格式数据&lt;br&gt;(请求 / 响应)" style="edgeLabel;html=1;align=center;verticalAlign=middle;resizable=0;points=[];strokeColor=#0F8B8D;fontColor=#143642;fillColor=#FAE5C7;" vertex="1" connectable="0" parent="FJN4-35jgTs4fs4E5eGO-15">
          <mxGeometry x="0.7228" y="2" relative="1" as="geometry">
            <mxPoint x="-2" y="7" as="offset" />
          </mxGeometry>
        </mxCell>
        <mxCell id="FJN4-35jgTs4fs4E5eGO-4" value="Web后台&lt;div&gt;Vue + Element-Pro&lt;/div&gt;" style="shape=parallelogram;perimeter=parallelogramPerimeter;whiteSpace=wrap;html=1;fixedSize=1;strokeColor=#0F8B8D;fontColor=#143642;fillColor=#FAE5C7;" vertex="1" parent="1">
          <mxGeometry x="420" y="250" width="190" height="60" as="geometry" />
        </mxCell>
        <mxCell id="FJN4-35jgTs4fs4E5eGO-7" style="edgeStyle=orthogonalEdgeStyle;rounded=0;orthogonalLoop=1;jettySize=auto;html=1;entryX=0.94;entryY=0.493;entryDx=0;entryDy=0;entryPerimeter=0;strokeColor=#A8201A;fontColor=#143642;fillColor=#FAE5C7;" edge="1" parent="1" source="FJN4-35jgTs4fs4E5eGO-2" target="FJN4-35jgTs4fs4E5eGO-4">
          <mxGeometry relative="1" as="geometry" />
        </mxCell>
        <mxCell id="FJN4-35jgTs4fs4E5eGO-11" value="后端程序&lt;br&gt;Golang + Gin框架" style="shape=parallelogram;perimeter=parallelogramPerimeter;whiteSpace=wrap;html=1;fixedSize=1;strokeColor=#0F8B8D;fontColor=#143642;fillColor=#FAE5C7;" vertex="1" parent="1">
          <mxGeometry x="280" y="450" width="210" height="60" as="geometry" />
        </mxCell>
        <mxCell id="FJN4-35jgTs4fs4E5eGO-17" value="MySQL" style="shape=cylinder3;whiteSpace=wrap;html=1;boundedLbl=1;backgroundOutline=1;size=15;strokeColor=#0F8B8D;fontColor=#143642;fillColor=#FAE5C7;" vertex="1" parent="1">
          <mxGeometry x="600" y="390" width="150" height="80" as="geometry" />
        </mxCell>
        <mxCell id="FJN4-35jgTs4fs4E5eGO-18" value="MongoDB" style="shape=cylinder3;whiteSpace=wrap;html=1;boundedLbl=1;backgroundOutline=1;size=15;strokeColor=#0F8B8D;fontColor=#143642;fillColor=#FAE5C7;" vertex="1" parent="1">
          <mxGeometry x="600" y="480" width="150" height="80" as="geometry" />
        </mxCell>
        <mxCell id="FJN4-35jgTs4fs4E5eGO-20" style="edgeStyle=orthogonalEdgeStyle;rounded=0;orthogonalLoop=1;jettySize=auto;html=1;entryX=0;entryY=0.5;entryDx=0;entryDy=0;entryPerimeter=0;strokeColor=#A8201A;fontColor=#143642;fillColor=#FAE5C7;" edge="1" parent="1" source="FJN4-35jgTs4fs4E5eGO-11" target="FJN4-35jgTs4fs4E5eGO-17">
          <mxGeometry relative="1" as="geometry" />
        </mxCell>
        <mxCell id="FJN4-35jgTs4fs4E5eGO-22" value="Gorm" style="edgeLabel;html=1;align=center;verticalAlign=middle;resizable=0;points=[];strokeColor=#0F8B8D;fontColor=#143642;fillColor=#FAE5C7;" vertex="1" connectable="0" parent="FJN4-35jgTs4fs4E5eGO-20">
          <mxGeometry x="0.6691" relative="1" as="geometry">
            <mxPoint x="-5" y="-10" as="offset" />
          </mxGeometry>
        </mxCell>
        <mxCell id="FJN4-35jgTs4fs4E5eGO-21" style="edgeStyle=orthogonalEdgeStyle;rounded=0;orthogonalLoop=1;jettySize=auto;html=1;entryX=0;entryY=0.5;entryDx=0;entryDy=0;entryPerimeter=0;strokeColor=#A8201A;fontColor=#143642;fillColor=#FAE5C7;" edge="1" parent="1" source="FJN4-35jgTs4fs4E5eGO-11" target="FJN4-35jgTs4fs4E5eGO-18">
          <mxGeometry relative="1" as="geometry" />
        </mxCell>
        <mxCell id="FJN4-35jgTs4fs4E5eGO-24" value="MongoDriver" style="edgeLabel;html=1;align=center;verticalAlign=middle;resizable=0;points=[];strokeColor=#0F8B8D;fontColor=#143642;fillColor=#FAE5C7;" vertex="1" connectable="0" parent="FJN4-35jgTs4fs4E5eGO-21">
          <mxGeometry x="0.5796" y="-1" relative="1" as="geometry">
            <mxPoint y="9" as="offset" />
          </mxGeometry>
        </mxCell>
        <mxCell id="FJN4-35jgTs4fs4E5eGO-33" style="edgeStyle=orthogonalEdgeStyle;rounded=0;orthogonalLoop=1;jettySize=auto;html=1;entryX=0.5;entryY=1;entryDx=0;entryDy=0;strokeColor=#A8201A;fontColor=#143642;fillColor=#FAE5C7;" edge="1" parent="1" source="FJN4-35jgTs4fs4E5eGO-27" target="FJN4-35jgTs4fs4E5eGO-11">
          <mxGeometry relative="1" as="geometry" />
        </mxCell>
        <mxCell id="FJN4-35jgTs4fs4E5eGO-27" value="设备&lt;br&gt;（桌面端模拟程序）&lt;br&gt;Python + Requests" style="shape=parallelogram;perimeter=parallelogramPerimeter;whiteSpace=wrap;html=1;fixedSize=1;strokeColor=#0F8B8D;fontColor=#143642;fillColor=#FAE5C7;" vertex="1" parent="1">
          <mxGeometry x="120" y="620" width="170" height="60" as="geometry" />
        </mxCell>
        <mxCell id="FJN4-35jgTs4fs4E5eGO-34" style="edgeStyle=orthogonalEdgeStyle;rounded=0;orthogonalLoop=1;jettySize=auto;html=1;strokeColor=#A8201A;fontColor=#143642;fillColor=#FAE5C7;" edge="1" parent="1" source="FJN4-35jgTs4fs4E5eGO-28">
          <mxGeometry relative="1" as="geometry">
            <mxPoint x="385" y="510" as="targetPoint" />
          </mxGeometry>
        </mxCell>
        <mxCell id="FJN4-35jgTs4fs4E5eGO-28" value="设备&lt;br&gt;（桌面端模拟程序）&lt;br&gt;Python + Requests" style="shape=parallelogram;perimeter=parallelogramPerimeter;whiteSpace=wrap;html=1;fixedSize=1;strokeColor=#0F8B8D;fontColor=#143642;fillColor=#FAE5C7;" vertex="1" parent="1">
          <mxGeometry x="300" y="620" width="170" height="60" as="geometry" />
        </mxCell>
        <mxCell id="FJN4-35jgTs4fs4E5eGO-35" style="edgeStyle=orthogonalEdgeStyle;rounded=0;orthogonalLoop=1;jettySize=auto;html=1;entryX=0.5;entryY=1;entryDx=0;entryDy=0;strokeColor=#A8201A;fontColor=#143642;fillColor=#FAE5C7;" edge="1" parent="1" source="FJN4-35jgTs4fs4E5eGO-29" target="FJN4-35jgTs4fs4E5eGO-11">
          <mxGeometry relative="1" as="geometry" />
        </mxCell>
        <mxCell id="FJN4-35jgTs4fs4E5eGO-36" value="API接口&lt;br&gt;上传JSON格式环境数据" style="edgeLabel;html=1;align=center;verticalAlign=middle;resizable=0;points=[];strokeColor=#0F8B8D;fontColor=#143642;fillColor=#FAE5C7;" vertex="1" connectable="0" parent="FJN4-35jgTs4fs4E5eGO-35">
          <mxGeometry x="0.7659" y="-1" relative="1" as="geometry">
            <mxPoint x="-1" y="-4" as="offset" />
          </mxGeometry>
        </mxCell>
        <mxCell id="FJN4-35jgTs4fs4E5eGO-29" value="设备&lt;br&gt;（桌面端模拟程序）&lt;br&gt;Python + Requests" style="shape=parallelogram;perimeter=parallelogramPerimeter;whiteSpace=wrap;html=1;fixedSize=1;strokeColor=#0F8B8D;fontColor=#143642;fillColor=#FAE5C7;" vertex="1" parent="1">
          <mxGeometry x="480" y="620" width="170" height="60" as="geometry" />
        </mxCell>
      </root>
    </mxGraphModel>
  </diagram>
</mxfile>
